<?xml version="1.0" standalone="no"?>
<!DOCTYPE svg PUBLIC "-//W3C//DTD SVG 20010904//EN"
        "http://www.w3.org/TR/2001/REC-SVG-20010904/DTD/svg10.dtd">
<svg version="1.0" xmlns="http://www.w3.org/2000/svg"
     width="370.000000pt" height="370.000000pt" viewBox="0 0 370.000000 370.000000"
     preserveAspectRatio="xMidYMid meet">

    <g transform="translate(370.000000,370.000000) scale(-0.100000,-0.100000)"
       fill="#000000" stroke="none">
        <path d="M1825 3524 c-165 -34 -259 -70 -367 -139 -442 -286 -557 -875 -257
-1312 43 -62 160 -179 223 -223 33 -22 45 -35 35 -38 -7 -3 -16 -8 -19 -12 -3
-4 -54 -15 -114 -24 -93 -15 -121 -16 -190 -6 -200 29 -337 94 -475 224 -188
179 -273 476 -210 744 9 42 16 78 15 79 -6 7 -81 -160 -103 -227 -99 -313 -13
-675 217 -909 82 -83 90 -90 170 -142 125 -81 262 -127 412 -137 180 -12 326
11 466 74 29 13 55 24 57 24 19 0 -19 -121 -65 -212 -91 -179 -264 -322 -470
-389 -86 -28 -254 -36 -366 -19 -47 7 -87 17 -90 22 -3 4 -12 8 -21 8 -48 0
-229 113 -306 191 -38 39 -54 50 -41 27 90 -154 199 -269 339 -355 63 -39 151
-80 190 -88 17 -4 41 -11 55 -16 109 -39 360 -35 495 8 127 40 271 119 355
195 38 34 136 152 167 200 75 117 132 296 145 457 l3 34 54 -54 c149 -151 224
-334 224 -549 0 -178 -45 -321 -147 -463 -101 -143 -212 -219 -416 -288 l-85
-29 95 5 c419 25 737 279 852 681 31 107 33 352 4 458 -57 211 -178 393 -345
518 -31 23 -60 45 -65 49 -11 9 23 27 71 36 21 5 108 8 193 7 172 -1 220 -12
349 -81 89 -47 126 -76 199 -152 102 -106 186 -269 207 -398 21 -126 8 -290
-30 -398 -14 -38 24 20 60 93 87 177 110 427 59 632 -21 83 -105 256 -153 318
-67 84 -152 164 -226 213 -63 42 -111 66 -228 113 -65 26 -252 49 -342 42
-143 -12 -270 -46 -363 -98 -42 -23 -43 -23 -38 7 21 117 107 272 204 370 75
76 174 147 234 167 18 6 38 14 43 19 6 4 48 17 95 29 92 23 302 30 337 12 10
-6 35 -13 55 -16 104 -16 237 -92 347 -198 l65 -63 -29 50 c-16 28 -35 56 -42
63 -7 7 -13 18 -13 23 0 12 -175 188 -205 207 -114 71 -160 95 -225 117 -3 1
-12 4 -20 8 -65 26 -151 40 -260 44 -125 5 -191 -2 -285 -30 -27 -7 -57 -16
-65 -18 -51 -14 -216 -109 -278 -160 -181 -149 -308 -387 -329 -616 -3 -35 -9
-63 -13 -63 -15 0 -109 110 -145 170 -170 280 -149 649 52 897 113 139 240
224 411 273 l67 19 -80 -1 c-44 0 -89 -2 -100 -4z"/>
    </g>
</svg>
